<?xml version="1.0" standalone="no"?>
<!DOCTYPE svg PUBLIC "-//W3C//DTD SVG 20010904//EN"
 "http://www.w3.org/TR/2001/REC-SVG-20010904/DTD/svg10.dtd">
<svg version="1.0" xmlns="http://www.w3.org/2000/svg"
 width="80.000000pt" height="83.000000pt" viewBox="0 0 80.000000 83.000000"
 preserveAspectRatio="xMidYMid meet">

<g transform="translate(0.000000,83.000000) scale(0.100000,-0.100000)"
fill="#000000" stroke="none">
<path d="M90 705 c0 -12 14 -15 70 -15 56 0 70 3 70 15 0 12 -14 15 -70 15
-56 0 -70 -3 -70 -15z"/>
<path d="M530 507 c0 -20 -10 -47 -25 -67 -20 -27 -25 -46 -25 -92 l0 -59 83
3 82 3 11 45 c6 25 9 60 6 78 -4 31 -6 32 -48 32 -42 0 -44 1 -38 24 7 29 -11
66 -31 66 -10 0 -15 -11 -15 -33z"/>
<path d="M90 415 c0 -12 15 -15 75 -15 62 0 73 2 69 15 -5 11 -23 15 -75 15
-55 0 -69 -3 -69 -15z"/>
<path d="M90 115 c0 -12 15 -15 75 -15 62 0 73 2 69 15 -5 11 -23 15 -75 15
-55 0 -69 -3 -69 -15z"/>
</g>
</svg>
