<?xml version="1.0" standalone="no"?>
<!DOCTYPE svg PUBLIC "-//W3C//DTD SVG 20010904//EN"
 "http://www.w3.org/TR/2001/REC-SVG-20010904/DTD/svg10.dtd">
<svg version="1.0" xmlns="http://www.w3.org/2000/svg"
 width="80.000000pt" height="83.000000pt" viewBox="0 0 80.000000 83.000000"
 preserveAspectRatio="xMidYMid meet">

<g transform="translate(0.000000,83.000000) scale(0.100000,-0.100000)"
fill="#000000" stroke="none">
<path d="M249 611 c-56 -35 -94 -112 -86 -173 8 -58 52 -125 97 -148 68 -35
167 -24 218 23 37 34 74 117 53 117 -6 0 -11 -9 -11 -19 0 -10 -9 -29 -19 -42
-16 -20 -23 -22 -38 -13 -11 8 -17 20 -14 35 11 71 10 73 -41 70 -47 -2 -48
-2 -48 27 0 22 6 32 23 37 l22 8 -22 4 c-19 4 -23 11 -23 40 0 35 0 36 20 18
21 -19 28 -7 8 13 -9 9 -7 12 11 12 12 0 19 4 16 10 -3 6 -32 10 -64 10 -46 0
-66 -6 -102 -29z m49 -21 c-12 -16 -23 -30 -24 -30 -11 0 -34 14 -34 21 0 10
49 38 68 39 8 0 5 -11 -10 -30z m42 -15 c0 -27 -4 -35 -18 -35 -30 0 -32 10
-10 41 12 16 23 29 25 29 2 0 3 -16 3 -35z m-85 -65 c-9 -47 -12 -50 -47 -50
-29 0 -30 2 -24 32 3 18 13 42 21 55 13 20 18 21 36 10 16 -10 19 -18 14 -47z
m63 14 c16 -5 22 -14 22 -35 0 -26 -3 -29 -34 -29 -42 0 -49 10 -36 44 10 28
13 29 48 20z m-65 -118 c10 -39 1 -55 -30 -56 -15 0 -43 52 -43 80 0 18 5 21
32 18 28 -3 33 -8 41 -42z m87 15 c0 -23 -5 -30 -26 -35 -31 -8 -39 -2 -48 37
-6 26 -5 27 34 27 37 0 40 -2 40 -29z m96 -3 c-8 -41 -9 -41 -45 -33 -26 5
-31 11 -31 36 0 27 2 29 41 29 41 0 41 0 35 -32z m-96 -85 l0 -38 -24 30 c-26
33 -25 45 5 45 15 0 19 -7 19 -37z m65 28 c3 -5 -6 -22 -20 -38 l-24 -28 -1
38 c0 30 4 37 19 37 11 0 22 -4 26 -9z m-107 -41 c25 -33 16 -38 -28 -15 -32
16 -38 30 -17 38 21 9 23 8 45 -23z m161 16 c9 -11 4 -17 -23 -30 -50 -24 -60
-20 -34 13 26 33 40 38 57 17z"/>
</g>
</svg>
