<?xml version="1.0" standalone="no"?>
<!DOCTYPE svg PUBLIC "-//W3C//DTD SVG 20010904//EN"
 "http://www.w3.org/TR/2001/REC-SVG-20010904/DTD/svg10.dtd">
<svg version="1.0" xmlns="http://www.w3.org/2000/svg"
 width="80.000000pt" height="83.000000pt" viewBox="0 0 80.000000 83.000000"
 preserveAspectRatio="xMidYMid meet">

<g transform="translate(0.000000,83.000000) scale(0.100000,-0.100000)"
fill="#000000" stroke="none">
<path d="M0 170 l0 -80 29 0 c16 0 36 -7 45 -15 19 -20 72 -20 80 0 3 9 18 15
36 15 l31 0 -2 80 -2 80 -108 0 -109 0 0 -80z m198 -2 l-3 -63 -85 0 -85 0 -3
63 -3 62 91 0 91 0 -3 -62z"/>
<path d="M290 170 c0 -80 2 -85 38 -81 8 1 24 -5 37 -13 31 -20 71 -21 79 -1
3 9 18 15 36 15 l30 0 0 80 0 80 -110 0 -110 0 0 -80z m198 -2 l-3 -63 -85 0
-85 0 -3 63 -3 62 91 0 91 0 -3 -62z"/>
<path d="M581 183 c-1 -77 4 -90 39 -94 17 -3 26 -11 28 -27 2 -12 -1 -22 -7
-22 -6 0 -11 -4 -11 -10 0 -6 27 -10 60 -10 57 0 78 11 45 24 -8 3 -15 12 -15
20 0 16 21 26 56 26 23 0 24 2 24 80 l0 80 -108 0 -109 0 -2 -67z m197 -15
l-3 -63 -85 0 -85 0 -3 63 -3 62 91 0 91 0 -3 -62z"/>
<path d="M62 44 c-20 -21 -15 -24 48 -24 59 0 82 15 37 24 -56 12 -74 12 -85
0z"/>
<path d="M353 43 c-31 -12 -8 -23 47 -23 57 0 78 11 44 24 -18 7 -73 7 -91 -1z"/>
</g>
</svg>
