<?xml version="1.0" standalone="no"?>
<!DOCTYPE svg PUBLIC "-//W3C//DTD SVG 20010904//EN"
 "http://www.w3.org/TR/2001/REC-SVG-20010904/DTD/svg10.dtd">
<svg version="1.0" xmlns="http://www.w3.org/2000/svg"
 width="80.000000pt" height="83.000000pt" viewBox="0 0 80.000000 83.000000"
 preserveAspectRatio="xMidYMid meet">

<g transform="translate(0.000000,83.000000) scale(0.100000,-0.100000)"
fill="#000000" stroke="none">
<path d="M398 660 l3 -90 105 0 104 0 0 60 0 60 -49 0 c-35 0 -65 9 -106 30
-31 17 -58 30 -59 30 0 0 0 -40 2 -90z"/>
<path d="M365 720 c3 -5 11 -10 16 -10 6 0 7 5 4 10 -3 6 -11 10 -16 10 -6 0
-7 -4 -4 -10z"/>
<path d="M301 696 c-14 -8 -31 -12 -38 -9 -9 4 -11 0 -6 -13 6 -18 5 -18 -13
-3 -36 31 -51 21 -53 -38 l-2 -53 66 0 c38 0 64 4 60 9 -3 5 -16 8 -28 5 -21
-3 -23 -1 -18 34 3 20 6 29 9 20 5 -25 42 -23 42 2 0 11 5 17 13 15 6 -3 18
-1 26 4 12 8 12 12 2 25 -16 19 -28 20 -60 2z m46 -2 c-3 -3 -12 -4 -19 -1 -8
3 -5 6 6 6 11 1 17 -2 13 -5z"/>
<path d="M335 590 c-3 -5 3 -10 15 -10 12 0 18 5 15 10 -3 6 -10 10 -15 10 -5
0 -12 -4 -15 -10z"/>
<path d="M160 510 c0 -5 5 -10 10 -10 6 0 10 5 10 10 0 6 -4 10 -10 10 -5 0
-10 -4 -10 -10z"/>
<path d="M230 510 c0 -5 7 -10 15 -10 8 0 15 5 15 10 0 6 -7 10 -15 10 -8 0
-15 -4 -15 -10z"/>
<path d="M312 509 c2 -6 8 -10 13 -10 5 0 11 4 13 10 2 6 -4 11 -13 11 -9 0
-15 -5 -13 -11z"/>
<path d="M390 510 c0 -5 5 -10 10 -10 6 0 10 5 10 10 0 6 -4 10 -10 10 -5 0
-10 -4 -10 -10z"/>
<path d="M460 510 c0 -5 7 -10 15 -10 8 0 15 5 15 10 0 6 -7 10 -15 10 -8 0
-15 -4 -15 -10z"/>
<path d="M540 510 c0 -5 7 -10 15 -10 8 0 15 5 15 10 0 6 -7 10 -15 10 -8 0
-15 -4 -15 -10z"/>
<path d="M620 510 c0 -5 5 -10 10 -10 6 0 10 5 10 10 0 6 -4 10 -10 10 -5 0
-10 -4 -10 -10z"/>
<path d="M398 345 c-2 -76 0 -105 9 -105 14 0 100 65 125 94 22 25 58 91 58
106 0 6 -36 10 -94 10 l-95 0 -3 -105z"/>
<path d="M220 433 c5 -2 8 -9 5 -13 -3 -5 -1 -11 4 -14 5 -4 8 2 7 11 -2 9 -8
18 -15 19 -6 1 -7 0 -1 -3z"/>
<path d="M258 433 c7 -3 16 -2 19 1 4 3 -2 6 -13 5 -11 0 -14 -3 -6 -6z"/>
<path d="M260 353 c0 -9 51 -60 77 -76 6 -4 15 -2 19 4 4 7 3 9 -4 5 -6 -3
-14 -1 -19 6 -15 23 -73 72 -73 61z"/>
</g>
</svg>
