<?xml version="1.0" standalone="no"?>
<!DOCTYPE svg PUBLIC "-//W3C//DTD SVG 20010904//EN"
 "http://www.w3.org/TR/2001/REC-SVG-20010904/DTD/svg10.dtd">
<svg version="1.0" xmlns="http://www.w3.org/2000/svg"
 width="80.000000pt" height="83.000000pt" viewBox="0 0 80.000000 83.000000"
 preserveAspectRatio="xMidYMid meet">

<g transform="translate(0.000000,83.000000) scale(0.100000,-0.100000)"
fill="#000000" stroke="none">
<path d="M420 775 c0 -61 -18 -105 -69 -169 -31 -39 -31 -39 -31 -162 l0 -124
155 0 c154 0 155 0 171 25 9 14 14 28 10 32 -3 4 2 15 11 26 20 22 29 123 12
143 -7 8 -7 14 1 19 14 8 13 48 -2 63 -7 7 -43 12 -90 12 l-78 0 0 60 c0 85
-26 130 -76 130 -10 0 -14 -14 -14 -55z"/>
</g>
</svg>
