<?xml version="1.0" standalone="no"?>
<!DOCTYPE svg PUBLIC "-//W3C//DTD SVG 20010904//EN"
 "http://www.w3.org/TR/2001/REC-SVG-20010904/DTD/svg10.dtd">
<svg version="1.0" xmlns="http://www.w3.org/2000/svg"
 width="148.000000pt" height="38.000000pt" viewBox="0 0 148.000000 38.000000"
 preserveAspectRatio="xMidYMid meet">

<g transform="translate(0.000000,38.000000) scale(0.100000,-0.100000)"
fill="#000000" stroke="none">
<path d="M0 190 l0 -190 190 0 190 0 0 190 0 190 -190 0 -190 0 0 -190z m360
0 l0 -170 -170 0 -170 0 0 170 0 170 170 0 170 0 0 -170z"/>
<path d="M181 288 c1 -17 2 -19 6 -5 2 9 9 17 15 17 6 0 7 -8 3 -17 -5 -14 -3
-15 6 -6 13 13 4 33 -17 33 -8 0 -14 -9 -13 -22z"/>
<path d="M135 243 l49 -53 -49 -52 -50 -53 53 50 52 49 53 -49 52 -50 -50 53
-49 52 49 53 50 52 -52 -50 -53 -49 -52 49 -53 50 50 -52z"/>
<path d="M82 193 c4 -23 32 -23 34 0 1 12 1 13 -3 2 -2 -8 -9 -15 -15 -15 -5
0 -8 7 -4 15 3 8 1 15 -5 15 -6 0 -9 -8 -7 -17z"/>
<path d="M260 191 c0 -14 6 -21 18 -20 10 0 12 3 4 6 -6 2 -10 9 -7 13 3 5 1
11 -5 15 -5 3 -10 -3 -10 -14z"/>
<path d="M180 108 c0 -11 8 -18 20 -18 11 0 20 5 20 11 0 5 -5 7 -11 3 -6 -3
-15 0 -20 7 -7 11 -9 10 -9 -3z"/>
<path d="M450 275 c0 -43 1 -45 29 -45 31 0 61 22 61 45 0 23 -30 45 -61 45
-28 0 -29 -2 -29 -45z m65 0 c0 -13 -8 -21 -22 -23 -19 -3 -23 1 -23 23 0 22
4 26 23 23 14 -2 22 -10 22 -23z"/>
<path d="M570 275 c0 -45 0 -45 36 -45 21 0 33 4 29 10 -3 6 -15 10 -26 10
-26 0 -24 18 4 23 l22 4 -22 2 c-28 1 -31 21 -4 21 11 0 23 5 26 10 4 6 -8 10
-29 10 -36 0 -36 0 -36 -45z"/>
<path d="M670 275 c0 -25 5 -45 10 -45 6 0 10 10 10 23 1 20 2 20 11 5 13 -24
24 -23 37 5 10 22 11 22 11 -5 1 -47 21 -31 21 17 0 50 -14 59 -32 20 -6 -14
-15 -25 -20 -25 -5 0 -14 11 -20 25 -17 38 -28 30 -28 -20z"/>
<path d="M812 308 c-16 -16 -15 -53 2 -68 21 -16 56 -9 72 15 27 41 -39 88
-74 53z m62 -23 c7 -19 -20 -46 -39 -39 -15 6 -20 35 -8 47 12 12 41 7 47 -8z"/>
<path d="M1172 154 c-40 -28 -22 -74 30 -74 48 0 60 57 17 80 -23 13 -21 13
-47 -6z m48 -19 c10 -12 10 -18 0 -30 -25 -30 -61 -7 -46 30 3 8 12 15 19 15
8 0 20 -7 27 -15z"/>
<path d="M1292 154 c-40 -28 -22 -74 30 -74 22 0 28 5 28 22 0 21 -1 21 -14 3
-18 -25 -49 -13 -44 17 2 18 9 23 31 23 30 -1 36 9 11 19 -20 8 -16 9 -42 -10z"/>
<path d="M1399 151 c-21 -16 -22 -22 -11 -45 8 -19 19 -26 40 -26 52 0 70 46
30 74 -28 20 -31 20 -59 -3z m59 -29 c4 -28 -24 -41 -44 -20 -20 20 -7 50 20
46 13 -2 22 -12 24 -26z"/>
<path d="M450 120 l0 -41 38 3 c35 3 37 5 36 38 0 33 -3 35 -37 38 l-37 3 0
-41z m60 20 c0 -5 -9 -10 -20 -10 -11 0 -20 5 -20 10 0 6 9 10 20 10 11 0 20
-4 20 -10z m0 -40 c0 -5 -9 -10 -20 -10 -11 0 -20 5 -20 10 0 6 9 10 20 10 11
0 20 -4 20 -10z"/>
<path d="M560 120 c0 -22 5 -40 10 -40 6 0 10 5 10 10 0 6 7 10 15 10 8 0 15
-4 15 -10 0 -5 5 -10 11 -10 6 0 9 6 6 14 -3 7 -1 18 5 24 20 20 0 42 -37 42
-34 0 -35 -1 -35 -40z m58 13 c2 -8 -5 -13 -17 -13 -12 0 -21 6 -21 16 0 18
31 15 38 -3z"/>
<path d="M677 123 c-16 -41 -14 -54 5 -35 16 16 45 15 51 0 2 -7 7 -10 11 -7
10 9 -25 79 -40 79 -6 0 -19 -17 -27 -37z m43 -4 c0 -5 -7 -9 -15 -9 -9 0 -12
6 -9 15 6 15 24 11 24 -6z"/>
<path d="M780 120 c0 -22 5 -40 10 -40 6 0 10 10 10 22 l0 21 23 -21 c32 -30
37 -28 37 18 0 22 -4 40 -10 40 -5 0 -10 -10 -10 -22 l0 -21 -23 21 c-32 30
-37 28 -37 -18z"/>
<path d="M900 120 c0 -39 1 -40 35 -40 41 0 62 28 45 60 -8 14 -21 20 -45 20
-34 0 -35 -1 -35 -40z m60 15 c10 -12 10 -18 0 -30 -21 -25 -40 -18 -40 15 0
33 19 40 40 15z"/>
<path d="M1071 123 c-1 -42 0 -43 32 -42 29 1 30 2 7 8 -19 5 -27 16 -31 41
-6 35 -6 35 -8 -7z"/>
</g>
</svg>
