<?xml version="1.0" standalone="no"?>
<!DOCTYPE svg PUBLIC "-//W3C//DTD SVG 20010904//EN"
 "http://www.w3.org/TR/2001/REC-SVG-20010904/DTD/svg10.dtd">
<svg version="1.0" xmlns="http://www.w3.org/2000/svg"
 width="100.000000pt" height="56.000000pt" viewBox="0 0 100.000000 56.000000"
 preserveAspectRatio="xMidYMid meet">

<g transform="translate(0.000000,56.000000) scale(0.100000,-0.100000)"
fill="#000000" stroke="none">
<path d="M266 545 c-21 -7 -52 -26 -68 -42 -29 -27 -68 -92 -68 -113 0 -20 21
-9 30 16 18 46 50 84 90 104 36 19 60 20 320 20 l280 0 0 -75 c0 -60 3 -75 15
-75 12 0 15 17 15 90 l0 90 -287 0 c-218 -1 -297 -4 -327 -15z"/>
<path d="M358 437 c2 -10 5 -16 6 -15 1 2 7 10 13 18 10 13 8 16 -6 16 -13 0
-17 -6 -13 -19z"/>
<path d="M483 425 c0 -22 2 -30 4 -17 2 12 2 30 0 40 -3 9 -5 -1 -4 -23z"/>
<path d="M553 425 c0 -22 2 -30 4 -17 2 12 2 30 0 40 -3 9 -5 -1 -4 -23z"/>
<path d="M584 448 c-3 -5 -2 -8 3 -7 24 4 43 -3 43 -16 0 -13 -19 -20 -43 -16
-5 1 -6 -2 -3 -7 2 -4 17 -7 32 -7 24 2 28 6 28 30 0 24 -4 28 -28 30 -15 0
-30 -3 -32 -7z"/>
<path d="M440 439 c0 -5 5 -7 10 -4 6 3 10 8 10 11 0 2 -4 4 -10 4 -5 0 -10
-5 -10 -11z"/>
<path d="M515 437 c-14 -11 -15 -16 -5 -22 9 -6 11 -4 5 5 -6 9 -4 12 7 8 9
-4 15 0 15 8 0 17 1 17 -22 1z"/>
<path d="M401 423 c-1 -17 -6 -21 -18 -17 -15 5 -16 4 -3 -5 19 -13 33 1 27
25 -4 16 -5 15 -6 -3z"/>
<path d="M440 410 c0 -5 5 -10 11 -10 5 0 7 5 4 10 -3 6 -8 10 -11 10 -2 0 -4
-4 -4 -10z"/>
<path d="M10 285 c0 -19 5 -35 10 -35 6 0 10 16 10 35 0 19 -4 35 -10 35 -5 0
-10 -16 -10 -35z"/>
<path d="M50 291 c0 -17 5 -31 10 -31 6 0 10 11 10 24 0 14 -4 28 -10 31 -6 4
-10 -7 -10 -24z"/>
<path d="M90 287 c0 -20 4 -37 9 -37 4 0 7 14 5 32 -6 45 -14 48 -14 5z"/>
<path d="M163 285 c6 -20 14 -32 19 -27 10 10 -7 62 -21 62 -5 0 -5 -15 2 -35z"/>
<path d="M200 285 c0 -19 5 -35 10 -35 6 0 10 16 10 35 0 19 -4 35 -10 35 -5
0 -10 -16 -10 -35z"/>
<path d="M247 313 c-10 -9 -8 -51 2 -57 5 -3 9 10 9 29 0 37 -1 39 -11 28z"/>
<path d="M280 285 c0 -22 4 -34 10 -30 6 3 10 17 10 30 0 13 -4 27 -10 30 -6
4 -10 -8 -10 -30z"/>
<path d="M340 285 c0 -19 5 -35 10 -35 6 0 10 16 10 35 0 19 -4 35 -10 35 -5
0 -10 -16 -10 -35z"/>
<path d="M370 283 c0 -20 3 -33 7 -29 11 11 12 66 2 66 -5 0 -9 -16 -9 -37z"/>
<path d="M411 283 c0 -29 2 -33 8 -18 7 18 4 55 -5 55 -2 0 -4 -17 -3 -37z"/>
<path d="M440 285 c0 -19 4 -35 9 -35 5 0 9 16 9 35 0 19 -4 35 -9 35 -5 0 -9
-16 -9 -35z"/>
<path d="M500 311 c0 -20 20 -61 29 -61 6 0 6 11 -1 30 -10 30 -28 50 -28 31z"/>
<path d="M572 285 c11 -20 23 -34 26 -31 9 9 -20 66 -34 66 -10 0 -8 -9 8 -35z"/>
<path d="M620 285 c0 -19 5 -35 10 -35 6 0 10 16 10 35 0 19 -4 35 -10 35 -5
0 -10 -16 -10 -35z"/>
<path d="M665 285 c0 -29 2 -32 14 -21 8 8 10 22 6 35 -10 32 -20 25 -20 -14z"/>
<path d="M720 285 c0 -19 5 -35 10 -35 6 0 10 16 10 35 0 19 -4 35 -10 35 -5
0 -10 -16 -10 -35z"/>
<path d="M787 313 c-11 -10 -8 -51 3 -58 6 -4 10 8 10 29 0 37 -2 41 -13 29z"/>
<path d="M825 285 c0 -19 1 -35 2 -35 9 0 22 42 17 54 -10 27 -19 18 -19 -19z"/>
<path d="M867 313 c-11 -10 -8 -51 3 -58 6 -4 10 8 10 29 0 37 -2 41 -13 29z"/>
<path d="M937 313 c-11 -11 -8 -40 6 -51 10 -9 12 -4 9 23 -4 37 -5 39 -15 28z"/>
<path d="M978 285 c-3 -27 -1 -32 9 -23 15 12 17 44 4 52 -5 3 -11 -10 -13
-29z"/>
<path d="M900 265 c0 -8 5 -15 10 -15 6 0 10 7 10 15 0 8 -4 15 -10 15 -5 0
-10 -7 -10 -15z"/>
<path d="M130 95 l0 -95 278 0 c152 0 292 4 311 10 72 20 134 83 147 148 10
47 -8 38 -32 -17 -13 -28 -37 -60 -59 -77 l-38 -29 -294 -3 -293 -3 0 81 c0
47 -4 80 -10 80 -6 0 -10 -38 -10 -95z"/>
<path d="M407 163 c6 -4 13 -24 16 -43 4 -34 4 -33 3 4 -1 26 -6 41 -16 43
-10 3 -11 2 -3 -4z"/>
<path d="M508 163 c6 -2 18 -2 25 0 6 3 1 5 -13 5 -14 0 -19 -2 -12 -5z"/>
<path d="M440 146 c0 -8 4 -17 9 -20 5 -4 7 3 4 14 -6 23 -13 26 -13 6z"/>
<path d="M608 123 c7 -3 16 -2 19 1 4 3 -2 6 -13 5 -11 0 -14 -3 -6 -6z"/>
<path d="M648 123 c7 -3 16 -2 19 1 4 3 -2 6 -13 5 -11 0 -14 -3 -6 -6z"/>
</g>
</svg>
